<svg xmlns="http://www.w3.org/2000/svg" version="1.1" xmlns:xlink="http://www.w3.org/1999/xlink" xmlns:svgjs="http://svgjs.dev/svgjs" width="1920" height="560" preserveAspectRatio="none" viewBox="0 0 1920 560">
    <g mask="url(&quot;#SvgjsMask1007&quot;)" fill="none">
        <path d="M406.23 602.98C558.36 593.49 667.51 310.22 940.4 309.02 1213.29 307.82 1207.49 379.02 1474.58 379.02 1741.66 379.02 1874.06 309.17 2008.75 309.02" stroke="rgba(51,121,194,0.58)" stroke-width="2"></path>
        <path d="M1165.8 645.85C1292.11 596.93 1243.05 213.58 1491.41 212.82 1739.78 212.06 1968.12 460.48 2142.64 464.82" stroke="rgba(51,121,194,0.58)" stroke-width="2"></path>
        <path d="M589.36 653.36C802.31 647.82 963.86 348.56 1382.3 341.38 1800.73 334.2 1969.25 119.52 2175.23 117.38" stroke="rgba(51,121,194,0.58)" stroke-width="2"></path>
        <path d="M365.36 671.17C542.8 632.33 605.14 175.05 888.05 166.5 1170.95 157.95 1149.39 236.5 1410.73 236.5 1672.08 236.5 1801.58 166.66 1933.42 166.5" stroke="rgba(51,121,194,0.58)" stroke-width="2"></path>
        <path d="M354.95 620.18C577.73 620.05 789.21 528.87 1241.18 527.11 1693.15 525.35 1896.3 266.67 2127.41 263.91" stroke="rgba(51,121,194,0.58)" stroke-width="2"></path>
    </g>
    <defs>
        <mask id="SvgjsMask1007">
            <rect width="1920" height="560" fill="#ffffff"></rect>
        </mask>
    </defs>
</svg>